<svg id="Layer_1" data-name="Layer 1" xmlns="http://www.w3.org/2000/svg" xmlns:xlink="http://www.w3.org/1999/xlink" viewBox="0 0 184 152"><defs><style>.cls-1{fill:#fff;}.cls-2{mask:url(#mask);}.cls-3{mask:url(#mask-2);}.cls-4{mask:url(#mask-3);}.cls-5{mask:url(#mask-4);}.cls-6{mask:url(#mask-5);}.cls-7{mask:url(#mask-6);}.cls-8{mask:url(#mask-7);}.cls-9{mask:url(#mask-8);}.cls-10{mask:url(#mask-9);}</style><mask id="mask" x="0" y="0" width="80" height="48" maskUnits="userSpaceOnUse"><g id="mask0_alpha" data-name="mask0 alpha"><path class="cls-1" d="M0,0H80V48H0Z"/></g></mask><mask id="mask-2" x="84" y="0" width="48" height="48" maskUnits="userSpaceOnUse"><g id="mask1_alpha" data-name="mask1 alpha"><path class="cls-1" d="M84,0h48V48H84Z"/></g></mask><mask id="mask-3" x="136" y="0" width="48" height="48" maskUnits="userSpaceOnUse"><g id="mask2_alpha" data-name="mask2 alpha"><path class="cls-1" d="M136,0h48V48H136Z"/></g></mask><mask id="mask-4" x="0" y="52" width="48" height="48" maskUnits="userSpaceOnUse"><g id="mask3_alpha" data-name="mask3 alpha"><path class="cls-1" d="M0,52H48v48H0Z"/></g></mask><mask id="mask-5" x="52" y="52" width="80" height="48" maskUnits="userSpaceOnUse"><g id="mask4_alpha" data-name="mask4 alpha"><path class="cls-1" d="M52,52h80v48H52Z"/></g></mask><mask id="mask-6" x="0" y="104" width="48" height="48" maskUnits="userSpaceOnUse"><g id="mask6_alpha" data-name="mask6 alpha"><path class="cls-1" d="M0,104H48v48H0Z"/></g></mask><mask id="mask-7" x="52" y="104" width="48" height="48" maskUnits="userSpaceOnUse"><g id="mask7_alpha" data-name="mask7 alpha"><path class="cls-1" d="M52,104h48v48H52Z"/></g></mask><mask id="mask-8" x="136" y="52" width="48" height="48" maskUnits="userSpaceOnUse"><g id="mask5_alpha" data-name="mask5 alpha"><path class="cls-1" d="M136,52h48v48H136Z"/></g></mask><mask id="mask-9" x="104" y="104" width="80" height="48" maskUnits="userSpaceOnUse"><g id="mask8_alpha" data-name="mask8 alpha"><path class="cls-1" d="M104,104h80v48H104Z"/></g></mask></defs><title>symbols</title><g class="cls-2"><g id="Cascade"><g id="Inner"><path d="M48,16H8l3.33,4L25.4,36.88,28,40l2.6-3.12L44.67,20H64V16ZM28,33.75,16.54,20H39.46Z"/><g id="Vector_2_Stroke_" data-name="Vector 2 (Stroke)"><path id="path2_fill" data-name="path2 fill" d="M72,12H32V8H72Z"/></g><g id="Vector_2_Stroke_2" data-name="Vector 2 (Stroke)"><path id="path3_fill" data-name="path3 fill" d="M54,36H50V32h4Z"/></g><g id="Subtract"><path id="path4_fill" data-name="path4 fill" d="M44,27v1H60V24H46Z"/></g><g id="Ellipse_9" data-name="Ellipse 9"><path id="path5_fill" data-name="path5 fill" d="M20,10a2,2,0,1,1-2-2A2,2,0,0,1,20,10Z"/></g><g id="Ellipse_9-2" data-name="Ellipse 9"><path id="path5_fill-2" data-name="path5 fill" d="M12,10a2,2,0,1,1-2-2A2,2,0,0,1,12,10Z"/></g></g></g></g><g class="cls-3"><g id="Sun"><g id="Inner-2" data-name="Inner"><g id="Ellipse_2" data-name="Ellipse 2"><path id="path7_fill" data-name="path7 fill" d="M112,24a4,4,0,1,1-4-4A4,4,0,0,1,112,24Z"/></g><path d="M108,8a16,16,0,1,0,16,16A16,16,0,0,0,108,8Zm9.26,23.63a12,12,0,1,1,2.2-4.06A12.07,12.07,0,0,1,117.26,31.63Z"/></g></g></g><g class="cls-4"><g id="Valley"><g id="Inner-3" data-name="Inner"><g id="Rectangle"><path id="path8_fill" data-name="path8 fill" d="M176,8h-8V20h8Z"/></g><g id="Subtract-2" data-name="Subtract"><path id="path10_fill" data-name="path10 fill" d="M166.65,24H176V40H144V27.8A14,14,0,0,0,166.65,24Z"/></g><path d="M154,8a10,10,0,1,0,10,10A10,10,0,0,0,154,8Zm0,16a6,6,0,1,1,6-6A6,6,0,0,1,154,24Z"/></g></g></g><g class="cls-5"><g id="Mismatch"><g id="Inner-4" data-name="Inner"><g id="Subtract-3" data-name="Subtract"><path id="path11_fill" data-name="path11 fill" d="M36,60H8V88h9.35A14,14,0,0,1,36,69.35Z"/></g><path d="M30,72A10,10,0,1,0,40,82,10,10,0,0,0,30,72Zm0,16a6,6,0,1,1,6-6A6,6,0,0,1,30,88Z"/></g></g></g><g class="cls-6"><g id="Battery"><g id="Inner-5" data-name="Inner"><g id="Vector_2" data-name="Vector 2"><path id="path12_fill" data-name="path12 fill" d="M68,68H60V84h8v8H84V84h4v8h20V88H92V80H80v8H72V80H64V72h8V64h8v8H92V64h8V60H88v8H84V60H68Z"/></g><g id="Rectangle_9" data-name="Rectangle 9"><path id="path14_fill" data-name="path14 fill" d="M112,60h12v4H112Z"/></g><g id="Ellipse_7" data-name="Ellipse 7"><path id="path5_fill-3" data-name="path5 fill" d="M108,62a2,2,0,1,1-2-2A2,2,0,0,1,108,62Z"/></g><g id="Ellipse_7-2" data-name="Ellipse 7"><path id="path5_fill-4" data-name="path5 fill" d="M116,90a2,2,0,1,1-2-2A2,2,0,0,1,116,90Z"/></g><g id="Ellipse_7-3" data-name="Ellipse 7"><path id="path5_fill-5" data-name="path5 fill" d="M124,90a2,2,0,1,1-2-2A2,2,0,0,1,124,90Z"/></g><path d="M120,68H96V84h28V68Zm0,12H100V72h20Z"/></g></g></g><g class="cls-7"><g id="Trap"><g id="Inner-6" data-name="Inner"><g id="Rectangle_3" data-name="Rectangle 3"><path id="path20_fill" data-name="path20 fill" d="M8,112H20v12H8Z"/></g><g id="Vector"><path id="path21_fill" data-name="path21 fill" d="M40,132a16,16,0,0,0-16-16v4a12,12,0,0,1,12,12Z"/><path id="path22_fill" data-name="path22 fill" d="M12,128a16,16,0,0,0,16,16v-4a12,12,0,0,1-12-12Z"/></g><g id="Vector_3" data-name="Vector 3"><path id="path23_fill" data-name="path23 fill" d="M36,140H32v4h8v-8H36Z"/></g><g id="Ellipse_5" data-name="Ellipse 5"><path id="path24_fill" data-name="path24 fill" d="M32,132a4,4,0,1,1-4-4A4,4,0,0,1,32,132Z"/></g></g></g></g><g class="cls-8"><g id="Signal"><g id="Inner-7" data-name="Inner"><path d="M82,127.15A10,10,0,0,1,78,124H72a4,4,0,0,0-4,4v16h4V128H82Z"/><path d="M86,112a6,6,0,0,0-5.65,4H70a10,10,0,0,0-10,10v18h4V126a6,6,0,0,1,6-6H80.35A6,6,0,1,0,86,112Zm0,8a2,2,0,1,1,2-2A2,2,0,0,1,86,120Z"/><path d="M88,132H76v12H92V132Zm0,8H80v-4h8Z"/></g></g></g><g class="cls-9"><g id="Fall"><g id="Inner-8" data-name="Inner"><g id="Subtract-4" data-name="Subtract"><path id="path15_fill" data-name="path15 fill" d="M172,76a12,12,0,0,1-24,0h-4a16,16,0,0,0,32,0Z"/></g><g id="Subtract-5" data-name="Subtract"><path id="path16_fill" data-name="path16 fill" d="M156,68h8v4h-8Z"/><path id="path17_fill" data-name="path17 fill" d="M156,76v4a4,4,0,0,0,8,0V76Z"/></g><g id="Line_Stroke_" data-name="Line (Stroke)"><path id="path18_fill" data-name="path18 fill" d="M164,64h-8V60h8Z"/></g><g id="Ellipse_6" data-name="Ellipse 6"><path id="path5_fill-6" data-name="path5 fill" d="M176,70a2,2,0,1,1-2-2A2,2,0,0,1,176,70Z"/></g><g id="Rectangle_7" data-name="Rectangle 7"><path id="path19_fill" data-name="path19 fill" d="M144,68h4v4h-4Z"/></g></g></g></g><g class="cls-10"><g id="Process"><g id="Inner-9" data-name="Inner"><g id="Ellipse_4" data-name="Ellipse 4"><path id="path5_fill-7" data-name="path5 fill" d="M116,114a2,2,0,1,1-2-2A2,2,0,0,1,116,114Z"/></g><g id="Ellipse_4-2" data-name="Ellipse 4"><path id="path5_fill-8" data-name="path5 fill" d="M168,134a2,2,0,1,1-2-2A2,2,0,0,1,168,134Z"/></g><g id="Subtract-6" data-name="Subtract"><path id="path30_fill" data-name="path30 fill" d="M118,121.61a12,12,0,1,0,12,0v5.1a8,8,0,1,1-12,0Z"/></g><path d="M176,118l-10-6v4H148v24h-4V112H122v16.55a4,4,0,1,0,4,0V116h14v28h12V120h14v4Z"/><g id="Subtract-7" data-name="Subtract"><path id="path32_fill" data-name="path32 fill" d="M166,128h6v12H160V128h3v-4h-7v20h20V124h-3.82Z"/></g></g></g></g></svg>